<svg width="38" height="38" viewBox="0 0 38 38" xmlns="http://www.w3.org/2000/svg"><circle fill="#000" cx="19" cy="19" r="19"/><g transform="translate(10 10.03)"><path d="M5.288.06C4.33.103 3.676.256 3.104.478A4.41 4.41 0 0 0 1.51 1.516 4.41 4.41 0 0 0 .472 3.109C.25 3.682.098 4.336.054 5.293.01 6.253 0 6.56 0 9.003c0 2.443.01 2.75.054 3.71.044.957.196 1.611.418 2.183A4.41 4.41 0 0 0 1.51 16.49c.5.5 1.002.808 1.594 1.038.572.222 1.226.374 2.184.418.96.044 1.266.054 3.71.054 2.443 0 2.749-.01 3.709-.054.957-.044 1.611-.196 2.184-.418a4.411 4.411 0 0 0 1.593-1.038c.5-.5.808-1.002 1.038-1.594.222-.572.375-1.226.418-2.184.044-.96.054-1.266.054-3.71 0-2.443-.01-2.749-.054-3.709-.043-.957-.196-1.611-.418-2.184a4.41 4.41 0 0 0-1.038-1.593A4.41 4.41 0 0 0 14.891.478C14.318.256 13.664.103 12.707.06c-.96-.044-1.266-.054-3.71-.054-2.443 0-2.75.01-3.71.054zm7.345 1.62c.877.04 1.353.186 1.67.309.42.163.72.358 1.035.673.315.315.51.615.673 1.035.123.317.27.793.31 1.67.043.949.052 1.233.052 3.636 0 2.402-.009 2.687-.052 3.635-.04.878-.187 1.354-.31 1.671-.163.42-.358.72-.673 1.035-.315.314-.615.51-1.035.673-.317.123-.793.27-1.67.31-.949.043-1.233.052-3.636.052-2.402 0-2.687-.01-3.635-.053-.878-.04-1.354-.186-1.671-.31a2.788 2.788 0 0 1-1.035-.672 2.788 2.788 0 0 1-.673-1.035c-.123-.317-.27-.793-.31-1.67-.043-.95-.052-1.234-.052-3.636 0-2.403.01-2.687.053-3.636.04-.877.186-1.353.31-1.67.163-.42.358-.72.672-1.035.315-.315.615-.51 1.035-.673.317-.123.793-.27 1.67-.31.95-.043 1.234-.052 3.636-.052 2.403 0 2.687.009 3.636.052z" fill="#FFF" /></g><path d="M18.997 22.032a3 3 0 1 1 0-5.998 3 3 0 0 1 0 5.998m0-7.62a4.62 4.62 0 1 0 0 9.241 4.62 4.62 0 0 0 0-9.24M24.88 14.23a1.08 1.08 0 1 1-2.16 0 1.08 1.08 0 0 1 2.16 0" fill="#FFF"/></svg>
