<svg xmlns="http://www.w3.org/2000/svg" viewBox="0 0 901.89 194.78" aria-label="New York" role="img">         <path d="M448.91,49l.63-2.12H420.45l-.65,2.09c7.58.54,9.84,4.56,9.84,7.89A14.08,14.08,0,0,1,427.92,63l-32.24,61.8-4.86-67c-.53-6.94,3.24-8.78,10.73-8.85l.65-2.13H371.47l-.64,2.1c7.61.63,9.93,3.28,9.93,6.38a11.53,11.53,0,0,1-1.49,5.21l-31.44,64L342.94,58c-.38-7.61,3.43-8.73,10.47-9l.63-2.12H322.66L322,49c8.85.51,11.56,3.07,12.19,11.21l6.22,76.7h3.81l37.84-76.79,6.18,76.79h3.65l38.59-73.66C435.63,53.46,441.38,49.43,448.91,49Zm-194.64,0c4.9.35,8,1.36,9.25,3.2s1.25,4.56,0,8.92L245.22,122c-2.13,6.88-7.3,10.65-15,11.13l-.8,2.25h76.43l13.25-26.17-1.58-.66C306.65,125.81,290.7,133,262.77,133H251.35c.19-.63,12.8-42.58,12.91-42.93H277c5.12,0,8.54,1.14,10.45,3.5,2.19,2.69,2.47,7.3,1,14.29h1.95L301,72.66h-2C295.24,82.42,287.45,88,277.13,88H264.9c.19-.63,11.66-38.66,11.76-39h11.9c15,0,24.41,6.58,27.75,19.14l1.59-.24-2.84-21H254.91Zm60.25,108.79c-3.82,0-6.29,1.68-6.29,4.31,0,2.3,2.12,3.68,4.17,3.68a6.25,6.25,0,0,0,2.65-.7,5.63,5.63,0,0,1,2.24-.61c3.36,0,5.79,3.53,5.79,8.4,0,11.12-10.47,19.18-24.89,19.18-29.66,0-58.73-24.6-88.86-75.21C221.68,76.9,246.5,10.13,274.19,10.13a26.72,26.72,0,0,1,11,2.38,17.49,17.49,0,0,0,6.81,1.7c6,0,7.59-3.74,7.59-6,0-4.93-4.88-8.25-12.16-8.25-40.41,0-65,64.46-80.06,113.25-14.2-24.84-33.09-64.08-43.12-109.84H117.63c-12,0-32.25,2.58-32.25,19.7a14,14,0,0,0,14,14c7.83,0,12-5.17,12-8.9,0-2.33-1.3-4.83-4.17-4.83S103,25.77,103,28.17a4.69,4.69,0,0,1-4.82,5c-5.71,0-9.7-4.26-9.7-10.36,0-11,9.8-16.57,29.13-16.57H137.4c11.58,0,16.68,5.75,13.78,17.33C131.37,93.37,91.74,168,39.92,168,16.08,168,3.6,154.08,3.6,140.33c0-10,6.76-17.39,12.81-17.39,4,0,5.48,2.66,6.9,5.23,1.34,2.41,2.72,4.9,6.16,4.9a4.89,4.89,0,0,0,5-5c0-5.54-6.29-9.72-14.62-9.72-9.58,0-19.84,8.83-19.84,22,0,18,16.79,31.1,39.92,31.1,27.73,0,53.63-19.48,77-57.91,22.3-36.71,34.48-78.18,38-91.28,20.31,72.63,81,172.54,142.84,172.54,16.59,0,28.17-9.24,28.17-22.45C325.87,164.13,320.88,157.73,314.52,157.73ZM626.72,44.88c-26.41,0-53.31,29.54-53.31,58.53,0,22.35,14.74,34.05,29.31,34.05,12.71,0,25.84-6.52,36-17.88a64.46,64.46,0,0,0,16.45-42.45C655.21,57.84,643.76,44.88,626.72,44.88Zm-24.17,90c-11.9,0-19-10.53-19-28.06,0-25.36,21.1-59.4,42.69-59.4,15.31,0,18.52,13.69,18.52,25.12C644.75,94.29,630.26,134.9,602.55,134.9ZM621.85,6.18l.79-2.77H576.9l-.78,2.76c12,.62,15.4,5.83,15.4,10.37q0,4-3.22,9.19s-59,92.5-63.68,99.74c-.26-1.14-24.51-104.23-24.51-104.23a23.12,23.12,0,0,1-.65-5c0-7.15,5.5-9.63,16.12-10l.78-2.78H469.47l-.8,2.76c10,.39,15.89,3.07,19,15.84,5.6,23,27.27,114.44,27.9,117.11-22.68,33.16-41.81,52.37-72.38,52.37-22.29,0-39.1-15.41-39.1-35.84s16.3-37,36.33-37c12.45,0,19.17,6.35,19.17,12.32a7.07,7.07,0,0,1-3.32,6.16c-1.66,1.06-3.21,2.4-3.21,4.94a4.19,4.19,0,0,0,4.49,4.17c4.3,0,6.62-5.17,6.62-10,0-12.54-9.1-20.34-23.75-20.34-24.56,0-39.77,21-39.77,40.42,0,18.9,15.91,38.45,42.54,38.45,38.88,0,59.37-30.81,81.06-63.43,0,0,62.4-97.12,69-107C601,13,610.87,6.63,621.85,6.18ZM888.42,138.92c-6.45,0-9.88,4.41-9.88,7.59a3.15,3.15,0,0,0,3,3.19,4,4,0,0,0,3.81-2.41A6.44,6.44,0,0,1,891,144c5.12,0,8.58,3.48,8.58,9.26,0,10.39-10.88,18.85-24.24,18.85-33.66,0-62.77-29.75-89-90.93l30.87-23.56c10.13-7.49,15.07-8.29,19.11-8.6l.65-2.13H807.1L806.47,49c5,.28,7.92,2.14,7.92,4.68,0,2-1.7,4.37-5,7L766.77,92.79,776.17,62l.2-.57C779,53.81,780.66,49.52,791.64,49l.63-2.12H758.44L757.78,49c4.91.22,7.89,1.24,9.15,3s1.21,4.88-.38,10.37L748.92,121.3c-2.29,7.35-7,11.74-12.49,11.74-5,0-8.4-3.06-12.35-11.29L708.87,90.69c13.73-2.58,29.6-11,29.6-26.46,0-10.83-7.53-17.94-26-17.88l-15.74.28c-7.73.2-15.87.39-21.85.21L674.21,49c8.88.57,12.22,2.79,8.92,13.4l-17.8,58.94c-2.31,7.42-7.33,11.3-15.12,11.75l-.83,2.28H685l.63-2.28c-6.67-.31-11.67-1.37-11.67-7.26a16.67,16.67,0,0,1,.8-4.67s8.66-28.86,8.76-29.21H699.7c.06.1.12.23.12.23,7.06,14.13,15.86,31.72,21,43.05l.07.14h47.86l.62-2.29c-6.6-.15-11.81-1.56-11.81-7.32a16.13,16.13,0,0,1,.79-4.6s7.08-23.6,7.32-24.42L778,87.15c16.32,32.93,43.6,87.69,96.74,87.69,15.24,0,27.18-9.5,27.18-21.63C901.89,143.92,895,138.92,888.42,138.92ZM696.1,89.61H684.2L696.62,49c2-.18,8-.48,13-.48,15.85,0,19.18,7.94,19.18,14.61C728.83,75.19,723.15,89.61,696.1,89.61Z"></path>       </svg>
