<svg width="38" height="38" viewBox="0 0 38 38" xmlns="http://www.w3.org/2000/svg"><g fill="none" fill-rule="nonzero"><circle fill="#000" cx="19" cy="19" r="19"></circle><path d="M29.042 12.736a7.442 7.442 0 0 1-2.127.583 3.695 3.695 0 0 0 1.629-2.048 7.417 7.417 0 0 1-2.351.898 3.701 3.701 0 0 0-6.308 3.376 10.504 10.504 0 0 1-7.629-3.868 3.69 3.69 0 0 0-.501 1.861 3.7 3.7 0 0 0 1.646 3.081 3.711 3.711 0 0 1-1.676-.462v.047a3.703 3.703 0 0 0 2.969 3.628 3.643 3.643 0 0 1-1.671.066 3.706 3.706 0 0 0 3.458 2.57A7.439 7.439 0 0 1 11 24a10.46 10.46 0 0 0 5.675 1.662c6.81 0 10.531-5.642 10.531-10.53 0-.161-.004-.321-.011-.48a7.544 7.544 0 0 0 1.847-1.916" fill="#FFF"></path></g></svg>
